<mxfile host="app.diagrams.net" modified="2024-02-23T14:06:06.842Z" agent="Mozilla/5.0 (Windows NT 10.0; Win64; x64; rv:122.0) Gecko/20100101 Firefox/122.0" version="23.1.6" etag="vN1SGor3z-nae1kTVapm" type="github">
  <diagram name="PÃ¡gina-1" id="LapgcN920nQ1Q9BcjMwB">
    <mxGraphModel>
      <root>
        <mxCell id="0" />
        <mxCell id="1" parent="0" />
      </root>
    </mxGraphModel>
  </diagram>
</mxfile>
